<svg class="border shadow-md" viewBox="0 0 519.2 519.2" style="width: 519.2px; height: 519.2px;" xmlns="http://www.w3.org/2000/svg" preserveAspectRatio="none"><rect class="bg" id="bg" x="0" y="0" width="519.2" height="519.2" fill="#ffffff"/><g transform="rotate(0 259.6 259.6)"><path d="M -719.20 -56.53 S -455.00 -99.80&#10;            0.00 -56.53 349.60 -99.80&#10;            719.20 -56.53 1068.80 -108.53&#10;            1438.40 -56.53 h 110 V 719.2 H -719.20 Z" fill="#460AC6" id="-1"/><path d="M -719.20 30.00 S -546.00 -20.00&#10;            0.00 30.00 349.60 -13.27&#10;            719.20 30.00 1068.80 -44.00&#10;            1438.40 30.00 h 110 V 719.2 H -719.20 Z" fill="#3e08b0" id="0"/><path id="1" d="M -719.20 116.53 S -369.60 73.27&#10;            0.00 116.53 349.60 32.53&#10;            719.20 116.53 1041.40 73.27&#10;            1438.40 116.53 h 110 V 719.2 H -719.20 Z" fill="#36069a"/><path id="2" d="M -719.20 203.07 S -640.00 142.07&#10;            0.00 203.07 67.20 159.80&#10;            719.20 203.07 1068.80 159.80&#10;            1438.40 203.07 h 110 V 719.2 H -719.20 Z" fill="#2e0484"/><path id="3" d="M -719.20 289.60 S -369.60 237.60&#10;            0.00 289.60 155.20 246.33&#10;            719.20 289.60 1068.80 246.33&#10;            1438.40 289.60 h 110 V 719.2 H -719.20 Z" fill="#26026e"/><path id="4" d="M -719.20 376.13 S -369.60 298.13&#10;            0.00 376.13 349.60 293.13&#10;            719.20 376.13 1038.40 304.13&#10;            1438.40 376.13 h 110 V 719.2 H -719.20 Z" fill="#1e0058"/><path id="5" d="M -719.20 462.67 S -369.60 417.67&#10;            0.00 462.67 349.60 402.67&#10;            719.20 462.67 1068.80 419.40&#10;            1438.40 462.67 h 110 V 719.2 H -719.20 Z" fill="#160042"/></g></svg>