<svg class="border shadow-md" viewBox="0 0 519.2 519.2" style="width: 519.2px; height: 519.2px;" xmlns="http://www.w3.org/2000/svg" preserveAspectRatio="none"><rect class="bg" id="bg" x="0" y="0" width="519.2" height="519.2" fill="#ffffff"/><g transform="rotate(0 259.6 259.6)"><path d="M -719.20 -99.80 S -571.00 -186.80&#10;            0.00 -99.80 123.20 -164.70&#10;            719.20 -99.80 934.40 -164.70&#10;            1438.40 -99.80 h 110 V 719.2 H -719.20 Z" fill="#460AC6" id="-1"/><path d="M -719.20 30.00 S -369.60 -34.90&#10;            0.00 30.00 349.60 -98.00&#10;            719.20 30.00 1068.80 -34.90&#10;            1438.40 30.00 h 110 V 719.2 H -719.20 Z" fill="#3e0daa" id="0"/><path id="1" d="M -719.20 159.80 S -369.60 94.90&#10;            0.00 159.80 349.60 94.90&#10;            719.20 159.80 770.40 94.90&#10;            1438.40 159.80 h 110 V 719.2 H -719.20 Z" fill="#36108e"/><path id="2" d="M -719.20 289.60 S -369.60 224.70&#10;            0.00 289.60 349.60 176.60&#10;            719.20 289.60 749.40 215.60&#10;            1438.40 289.60 h 110 V 719.2 H -719.20 Z" fill="#2e1372"/><path id="3" d="M -719.20 419.40 S -369.60 329.40&#10;            0.00 419.40 349.60 331.40&#10;            719.20 419.40 1068.80 354.50&#10;            1438.40 419.40 h 110 V 719.2 H -719.20 Z" fill="#261656"/></g></svg>